<svg width="1826" height="1138" viewBox="0 0 1826 1138" fill="none" xmlns="http://www.w3.org/2000/svg">
<g opacity="0.3">
<path d="M184.258 850.301C173.357 839.4 173.357 821.725 184.258 810.824C195.159 799.923 212.833 799.923 223.734 810.824C234.635 821.725 234.635 839.4 223.734 850.301C212.833 861.202 195.159 861.202 184.258 850.301Z" stroke="#034833" stroke-width="3.00923" stroke-miterlimit="10" stroke-linecap="round" stroke-dasharray="6.3 11.82"/>
<path d="M1823.77 1136.22C1787.16 1031.43 1678.67 964.523 1568.86 948.24C1459.05 931.957 1347.56 958.08 1241.24 989.963C1134.92 1021.85 1029.08 1059.99 918.421 1068.76C807.762 1077.53 688.537 1052.57 609.854 974.252C555.744 920.363 521.59 842.991 452.488 810.443C389.959 781.015 316.796 796.874 248.747 808.837C180.697 820.8 102.9 825.803 50.2667 781.145C-3.16104 735.785 -9.88102 651.766 18.5497 587.705C46.9805 523.643 103.122 476.289 161.257 437.151C219.393 398.012 281.848 364.265 332.82 316.154C383.793 268.043 423.005 201.305 417.744 131.428C412.482 61.5508 350.156 -5.40917 280.537 2.69544" stroke="#034833" stroke-width="3.00923" stroke-miterlimit="10" stroke-linecap="round" stroke-dasharray="6.3 11.82"/>
</g>
</svg>
