<svg width="46" height="46" viewBox="0 0 46 46" fill="none" xmlns="http://www.w3.org/2000/svg">
<g clip-path="url(#clip0_42_3)">
<path d="M38.0982 27.6616C38.1358 27.1831 38.1608 26.7074 38.1608 26.2465V8.24056C38.1608 8.11925 38.1249 8.00064 38.0577 7.89967C37.9904 7.79871 37.8948 7.71989 37.7829 7.67314L20.974 0.641888C20.8988 0.610396 20.818 0.594177 20.7365 0.594177C20.6549 0.594177 20.5742 0.610396 20.499 0.641888L3.69045 7.67314C3.57851 7.71989 3.4829 7.79871 3.41565 7.89967C3.3484 8.00064 3.31252 8.11925 3.31252 8.24056V26.2465C3.30671 29.8354 4.36507 33.3454 6.35381 36.3328C8.34254 39.3203 11.1724 41.6511 14.4855 43.0305L20.4997 45.5463C20.5749 45.5778 20.6556 45.5941 20.7372 45.5941C20.8187 45.5941 20.8995 45.5778 20.9747 45.5463L26.9892 43.0305C27.082 42.9918 27.1724 42.9493 27.2641 42.9088C28.245 43.8447 29.4158 44.5585 30.697 45.0019C31.9781 45.4452 33.3397 45.6078 34.6892 45.4784C36.0387 45.3491 37.3446 44.9309 38.5182 44.2522C39.6919 43.5736 40.7057 42.6504 41.491 41.5453C42.2763 40.4402 42.8147 39.1791 43.0695 37.8475C43.3243 36.516 43.2897 35.1452 42.9679 33.8282C42.6461 32.5112 42.0448 31.2789 41.2047 30.2149C40.3646 29.1509 39.3053 28.2801 38.0989 27.6616H38.0982ZM20.7367 44.3119L14.9598 41.8956C11.8708 40.6093 9.23253 38.4361 7.37842 35.6506C5.5243 32.8652 4.53758 29.5926 4.54299 26.2465V8.65013L20.7367 1.87622L36.9303 8.65013V26.2465C36.9303 26.5411 36.9205 26.8442 36.9036 27.1465C36.1715 26.8895 35.4103 26.7242 34.6374 26.6543C34.6417 26.5158 34.6452 26.3791 34.6452 26.2458V10.5809C34.6452 10.4596 34.6093 10.3409 34.542 10.2399C34.4748 10.1389 34.3792 10.06 34.2673 10.0131L20.974 4.45282C20.8988 4.42133 20.818 4.40511 20.7365 4.40511C20.6549 4.40511 20.5742 4.42133 20.499 4.45282L7.20573 10.0131C7.09388 10.0601 6.99838 10.139 6.9312 10.24C6.86403 10.341 6.82818 10.4596 6.82815 10.5809V26.2465C6.82346 29.1418 7.67723 31.9735 9.28155 34.3837C10.8859 36.7938 13.1687 38.6743 15.8415 39.7873L20.499 41.7353C20.5742 41.7669 20.6549 41.7831 20.7365 41.7831C20.818 41.7831 20.8988 41.7669 20.974 41.7353L25.1758 39.9775C25.497 40.6816 25.9032 41.3436 26.3856 41.9487L20.7367 44.3119ZM24.3268 36.0695C24.3264 37.0041 24.465 37.9335 24.7382 38.8272L20.7367 40.501L16.3165 38.6521C13.8676 37.6325 11.7761 35.9097 10.3062 33.7016C8.83639 31.4935 8.05422 28.8991 8.05862 26.2465V10.9905L20.7367 5.68716L33.4147 10.9905V26.2483C33.4147 26.371 33.4115 26.4975 33.4077 26.6259C30.9682 26.7249 28.6614 27.7627 26.9692 29.5226C25.277 31.2824 24.3303 33.6281 24.3268 36.0695ZM28.9917 42.7492V41.9941C28.9926 41.1319 29.3355 40.3053 29.9452 39.6956C30.5549 39.086 31.3815 38.743 32.2437 38.7421H35.3198C36.182 38.743 37.0086 39.086 37.6183 39.6956C38.2279 40.3053 38.5709 41.1319 38.5718 41.9941V42.7489C37.1766 43.7535 35.5009 44.294 33.7817 44.294C32.0625 44.294 30.3869 43.7538 28.9917 42.7492ZM39.7864 41.6815C39.7067 40.551 39.2019 39.4926 38.3736 38.7191C37.5453 37.9456 36.4549 37.5143 35.3216 37.512H32.2454C31.1121 37.5143 30.0216 37.9455 29.1933 38.719C28.365 39.4926 27.8603 40.551 27.7806 41.6815C26.6849 40.5108 25.9552 39.0453 25.6815 37.4654C25.4078 35.8855 25.6019 34.2599 26.2399 32.7889C26.878 31.3178 27.9321 30.0653 29.2727 29.1855C30.6133 28.3057 32.1818 27.837 33.7853 27.837C35.3887 27.837 36.9573 28.3057 38.2978 29.1855C39.6384 30.0653 40.6925 31.3178 41.3306 32.7889C41.9686 34.2599 42.1627 35.8855 41.889 37.4654C41.6153 39.0453 40.8857 40.5108 39.7899 41.6815H39.7864Z" fill="#83CD20"/>
<path d="M33.7813 29.5995C33.0908 29.561 32.4046 29.7306 31.8116 30.0864C31.2185 30.4421 30.7459 30.9677 30.4548 31.595C30.1637 32.2223 30.0675 32.9225 30.1788 33.605C30.29 34.2876 30.6035 34.9211 31.0787 35.4235C31.5539 35.9259 32.1689 36.2742 32.8442 36.4233C33.5195 36.5723 34.224 36.5153 34.8666 36.2596C35.5091 36.0039 36.0601 35.5612 36.4483 34.9889C36.8365 34.4166 37.0441 33.741 37.0441 33.0494C37.0672 32.1597 36.7368 31.2971 36.1252 30.6505C35.5137 30.0039 34.6708 29.626 33.7813 29.5995ZM33.7813 35.2685C33.334 35.3079 32.8853 35.2112 32.4939 34.9912C32.1026 34.7711 31.7868 34.438 31.5881 34.0354C31.3894 33.6328 31.3169 33.1796 31.3802 32.7351C31.4435 32.2906 31.6396 31.8756 31.9429 31.5445C32.2461 31.2134 32.6423 30.9817 33.0795 30.8796C33.5168 30.7776 33.9746 30.8101 34.3931 30.9728C34.8115 31.1355 35.1711 31.4208 35.4246 31.7914C35.6781 32.1619 35.8137 32.6004 35.8136 33.0494C35.837 33.613 35.6364 34.1629 35.2555 34.5789C34.8747 34.995 34.3447 35.2434 33.7813 35.2699V35.2685Z" fill="#83CD20"/>
<path d="M20.7366 10.5395C19.1957 10.5395 17.6893 10.9964 16.408 11.8526C15.1267 12.7087 14.1281 13.9255 13.5384 15.3492C12.9487 16.7729 12.7944 18.3395 13.095 19.8508C13.3957 21.3622 14.1377 22.7505 15.2273 23.8401C16.317 24.9298 17.7053 25.6718 19.2166 25.9724C20.728 26.2731 22.2946 26.1188 23.7183 25.5291C25.1419 24.9394 26.3588 23.9407 27.2149 22.6594C28.071 21.3782 28.528 19.8718 28.528 18.3308C28.5256 16.2651 27.704 14.2847 26.2434 12.8241C24.7827 11.3634 22.8023 10.5418 20.7366 10.5395ZM26.6636 21.125H24.6875C24.8311 20.4065 24.9171 19.6776 24.9448 18.9453H27.2652C27.1935 19.7015 26.99 20.4392 26.6636 21.125ZM14.8097 15.5352H16.7854C16.6422 16.2538 16.5562 16.9827 16.5281 17.7149H14.2078C14.2795 16.9587 14.4832 16.221 14.8097 15.5352ZM21.3519 14.3047V11.9387C21.9931 12.2734 22.614 13.1077 23.0612 14.3054L21.3519 14.3047ZM23.4261 15.5352C23.5863 16.2518 23.6822 16.9812 23.7126 17.7149H21.3519V15.5352H23.4261ZM20.1214 11.938V14.3047H18.4121C18.8593 13.1094 19.4802 12.2734 20.1214 11.9387V11.938ZM20.1214 15.5352V17.7149H17.7607C17.7909 16.9812 17.8868 16.2517 18.0472 15.5352H20.1214ZM14.2071 18.9453H16.5274C16.5555 19.6776 16.6415 20.4064 16.7847 21.125H14.8089C14.4825 20.4392 14.2788 19.7015 14.2071 18.9453ZM17.7607 18.9453H20.1214V21.125H18.0472C17.8868 20.4085 17.7909 19.679 17.7607 18.9453ZM20.1214 22.3555V24.7222C19.4802 24.3879 18.8593 23.5533 18.4118 22.3555H20.1214ZM21.3519 24.7222V22.3555H23.0612C22.614 23.5536 21.9931 24.3879 21.3519 24.7222ZM21.3519 21.125V18.9453H23.7126C23.6822 19.679 23.5863 20.4085 23.4261 21.125H21.3519ZM24.9448 17.7149C24.9169 16.9826 24.8309 16.2538 24.6875 15.5352H26.6636C26.9903 16.221 27.1943 16.9587 27.2662 17.7149H24.9448ZM25.906 14.3047H24.3693C24.159 13.6298 23.8637 12.9845 23.4904 12.3841C24.4364 12.824 25.2643 13.4823 25.906 14.3047ZM17.9811 12.3848C17.6085 12.985 17.3138 13.6302 17.1039 14.3047H15.5673C16.2086 13.4828 17.0359 12.8248 17.9811 12.3848ZM15.5669 22.3555H17.1039C17.3137 23.0303 17.6085 23.6757 17.9811 24.2761C17.0357 23.836 16.2083 23.1777 15.5669 22.3555ZM23.4918 24.2764C23.8651 23.676 24.1604 23.0305 24.3707 22.3555H25.9078C25.2659 23.1781 24.4379 23.8362 23.4918 24.2764Z" fill="#83CD20"/>
</g>
<defs>
<clipPath id="clip0_42_3">
<rect width="45" height="45" fill="white" transform="translate(0.774414 0.594055)"/>
</clipPath>
</defs>
</svg>
