<svg width="206" height="207" viewBox="0 0 206 207" fill="none" xmlns="http://www.w3.org/2000/svg">
<circle opacity="0.3" cx="102.999" cy="103.039" r="102" stroke="#034833" stroke-width="2"/>
<path d="M102.737 28.7227L100.282 20.1736H101.211L103.334 27.8276H103.139L105.319 20.1736H106.295L108.463 27.8276H108.257L110.391 20.1736H111.321L108.865 28.7227H107.89L105.698 21.0342H105.904L103.713 28.7227H102.737Z" fill="#034833"/>
<path d="M118.32 30.6565C117.747 30.5592 117.251 30.3355 116.833 29.9852C116.417 29.6274 116.112 29.1878 115.92 28.6663C115.737 28.1386 115.701 27.57 115.813 26.9605C115.923 26.3585 116.157 25.8435 116.516 25.4155C116.874 24.9876 117.308 24.6772 117.818 24.4844C118.336 24.2853 118.89 24.2357 119.478 24.3356C120.066 24.4354 120.566 24.6598 120.976 25.0088C121.394 25.3591 121.692 25.7937 121.869 26.3126C122.054 26.8327 122.09 27.3976 121.978 28.0071C121.865 28.6241 121.625 29.1498 121.258 29.584C120.892 30.0107 120.451 30.3198 119.933 30.5113C119.424 30.7041 118.886 30.7525 118.32 30.6565ZM118.475 29.81C118.883 29.8791 119.267 29.8396 119.629 29.6915C119.998 29.5446 120.309 29.3104 120.562 28.9887C120.823 28.6683 120.993 28.2899 121.073 27.8535C121.153 27.417 121.127 27.0091 120.994 26.6296C120.869 26.2515 120.659 25.9326 120.365 25.6731C120.077 25.4149 119.73 25.2512 119.323 25.1821C118.916 25.113 118.528 25.1518 118.158 25.2987C117.797 25.4468 117.486 25.6773 117.227 25.9902C116.967 26.303 116.798 26.6777 116.718 27.1141C116.638 27.5506 116.663 27.9623 116.795 28.3493C116.926 28.7362 117.135 29.0588 117.422 29.317C117.717 29.5765 118.068 29.7408 118.475 29.81Z" fill="#034833"/>
<path d="M129.152 33.4047L131.327 27.6515L132.139 27.9361L131.782 28.8807L131.727 28.7032C131.967 28.4793 132.254 28.3367 132.588 28.2754C132.929 28.2167 133.298 28.2568 133.695 28.396L134.063 28.525L133.759 29.33L133.25 29.1517C132.831 29.005 132.446 29.0161 132.096 29.1852C131.746 29.3543 131.482 29.6749 131.303 30.1472L129.964 33.6893L129.152 33.4047Z" fill="#034833"/>
<path d="M141.576 38.875L146.044 31.4254L146.796 31.8434L142.328 39.293L141.576 38.875Z" fill="#034833"/>
<path d="M154.05 47.5314C153.604 47.1709 153.293 46.7426 153.116 46.2466C152.945 45.7448 152.914 45.2281 153.022 44.6965C153.142 44.164 153.403 43.6671 153.805 43.2058C154.212 42.7387 154.675 42.4052 155.194 42.2053C155.719 42.0102 156.248 41.9507 156.78 42.0267C157.323 42.1018 157.82 42.322 158.273 42.6873C158.683 43.019 158.974 43.4011 159.145 43.8337C159.315 44.2663 159.364 44.7042 159.293 45.1473L159.027 45.2424L161.598 42.2927L162.268 42.8335L156.56 49.3817L155.89 48.8409L156.795 47.8028L156.819 47.9845C156.361 48.1844 155.885 48.242 155.391 48.1573C154.908 48.0717 154.461 47.8631 154.05 47.5314ZM154.651 46.9115C154.973 47.1711 155.329 47.3263 155.721 47.3773C156.118 47.4332 156.507 47.3885 156.887 47.2434C157.278 47.0974 157.62 46.8571 157.911 46.5226C158.203 46.1882 158.387 45.8258 158.463 45.4355C158.551 45.0443 158.531 44.6651 158.405 44.2979C158.285 43.9355 158.064 43.6245 157.743 43.3649C157.428 43.1101 157.074 42.9573 156.682 42.9063C156.291 42.8553 155.905 42.9023 155.525 43.0474C155.151 43.1973 154.816 43.4424 154.519 43.7826C154.227 44.1171 154.035 44.4775 153.941 44.8639C153.859 45.2494 153.875 45.6209 153.989 45.9785C154.109 46.3409 154.33 46.6519 154.651 46.9115Z" fill="#034833"/>
<path d="M162.152 55.2293L165.549 49.7728L166.19 50.5081L163.15 55.2047L162.924 54.9452L168.189 52.8004L168.754 53.4491L165.646 58.0679L165.419 57.8083L170.76 55.7501L171.393 56.4767L165.221 58.7499L164.655 58.1012L167.705 53.5891L167.863 53.7708L162.718 55.8781L162.152 55.2293Z" fill="#034833"/>
<path d="M170.065 65.9351L175.441 62.9472L175.884 63.6853L170.508 66.6732L170.065 65.9351ZM176.434 62.3953L177.538 61.7821L177.98 62.5202L176.877 63.1334L176.434 62.3953Z" fill="#034833"/>
<path d="M176.387 79.5308C176.184 78.9941 176.132 78.4656 176.229 77.9452C176.334 77.4223 176.567 76.9559 176.927 76.5461C177.297 76.1409 177.771 75.8371 178.348 75.6348C178.933 75.4299 179.499 75.3694 180.046 75.4533C180.595 75.5444 181.08 75.7555 181.499 76.0867C181.929 76.4224 182.246 76.8622 182.452 77.406C182.639 77.8998 182.697 78.3778 182.626 78.8401C182.556 79.3024 182.378 79.709 182.094 80.0598L181.818 80.0107L185.511 78.7168L185.815 79.5219L177.617 82.3941L177.313 81.5891L178.612 81.1338L178.542 81.3043C178.047 81.2507 177.609 81.064 177.226 80.7442C176.854 80.429 176.574 80.0246 176.387 79.5308ZM177.216 79.2892C177.362 79.6756 177.591 79.9885 177.902 80.2279C178.216 80.4745 178.573 80.629 178.972 80.6916C179.382 80.7587 179.796 80.7189 180.215 80.5722C180.634 80.4255 180.974 80.201 181.236 79.8986C181.508 79.6008 181.681 79.2603 181.757 78.8772C181.836 78.5012 181.802 78.12 181.656 77.7335C181.513 77.3543 181.285 77.045 180.974 76.8056C180.663 76.5662 180.307 76.4152 179.907 76.3527C179.51 76.2973 179.099 76.3442 178.673 76.4934C178.254 76.6402 177.908 76.8588 177.633 77.1495C177.369 77.4447 177.196 77.7767 177.114 78.1456C177.036 78.5216 177.07 78.9028 177.216 79.2892Z" fill="#034833"/>
<path d="M179.591 92.1877C179.488 91.6234 179.53 91.0886 179.717 90.5835C179.913 90.0846 180.229 89.6626 180.663 89.3172C181.098 88.9719 181.621 88.7474 182.231 88.6437C182.842 88.54 183.405 88.5764 183.92 88.7529C184.442 88.9281 184.878 89.2109 185.23 89.6012C185.583 89.9991 185.809 90.4727 185.91 91.0221C185.99 91.4585 185.978 91.8601 185.874 92.2269C185.779 92.5999 185.614 92.9305 185.379 93.2187C185.152 93.5056 184.876 93.7424 184.553 93.9293C184.237 94.1148 183.898 94.2383 183.536 94.2997C183.46 94.3125 183.373 94.3235 183.274 94.3326C183.182 94.3404 183.085 94.3452 182.984 94.3468L182.048 89.2335L182.84 89.0991L183.688 93.727L183.274 93.3782C183.701 93.3755 184.062 93.2639 184.356 93.0433C184.658 92.829 184.877 92.5553 185.01 92.2223C185.151 91.888 185.187 91.5327 185.118 91.1565C185.049 90.7802 184.887 90.447 184.632 90.1567C184.378 89.8739 184.057 89.6723 183.669 89.5519C183.289 89.4302 182.861 89.4291 182.386 89.5487C181.896 89.593 181.487 89.7399 181.16 89.9895C180.841 90.2453 180.614 90.5554 180.479 90.9198C180.345 91.2917 180.313 91.6695 180.383 92.0533C180.464 92.4973 180.638 92.8518 180.904 93.117C181.171 93.3821 181.48 93.5819 181.831 93.7163L181.578 94.5039C181.285 94.4296 180.998 94.2882 180.719 94.0795C180.447 93.8696 180.208 93.6037 180.001 93.2819C179.804 92.9663 179.667 92.6016 179.591 92.1877Z" fill="#034833"/>
<path d="M179.693 114.38L187.559 118.88L187.381 119.851L178.39 121.491L178.564 120.543L180.755 120.17L181.444 116.411L179.519 115.328L179.693 114.38ZM182.238 116.848L181.662 119.998L186.816 119.115L186.766 119.386L182.238 116.848Z" fill="#034833"/>
<path d="M174.917 130.697C175.13 130.132 175.452 129.681 175.882 129.346C176.311 129.01 176.799 128.8 177.346 128.716C177.9 128.635 178.466 128.695 179.043 128.897C179.621 129.1 180.091 129.402 180.454 129.805C180.817 130.208 181.047 130.669 181.145 131.19C181.25 131.712 181.195 132.257 180.981 132.822C180.846 133.18 180.654 133.493 180.405 133.763C180.156 134.032 179.874 134.249 179.558 134.414C179.249 134.581 178.927 134.675 178.593 134.696L178.49 133.833C178.854 133.799 179.189 133.669 179.495 133.444C179.801 133.219 180.026 132.917 180.169 132.537C180.313 132.158 180.345 131.78 180.266 131.404C180.192 131.038 180.019 130.706 179.748 130.408C179.481 130.12 179.134 129.902 178.708 129.752C178.289 129.606 177.878 129.559 177.473 129.612C177.074 129.674 176.72 129.821 176.411 130.054C176.1 130.293 175.872 130.602 175.729 130.982C175.586 131.361 175.557 131.728 175.644 132.082C175.728 132.444 175.904 132.757 176.172 133.021L175.495 133.611C175.26 133.39 175.076 133.119 174.944 132.797C174.812 132.476 174.741 132.135 174.73 131.774C174.719 131.414 174.781 131.055 174.917 130.697Z" fill="#034833"/>
<path d="M168.802 142.26C169.113 141.742 169.51 141.355 169.994 141.099C170.478 140.843 170.997 140.72 171.552 140.731C172.114 140.746 172.662 140.902 173.197 141.199C173.732 141.497 174.143 141.874 174.431 142.331C174.718 142.788 174.864 143.281 174.869 143.808C174.88 144.339 174.73 144.864 174.419 145.382C174.223 145.71 173.978 145.985 173.684 146.207C173.391 146.429 173.073 146.593 172.732 146.701C172.398 146.813 172.063 146.85 171.729 146.813L171.779 145.949C172.146 145.977 172.5 145.907 172.841 145.739C173.183 145.57 173.459 145.312 173.667 144.964C173.876 144.616 173.974 144.251 173.963 143.869C173.954 143.497 173.842 143.141 173.626 142.803C173.413 142.474 173.109 142.2 172.715 141.981C172.327 141.766 171.929 141.649 171.52 141.632C171.114 141.625 170.738 141.709 170.392 141.884C170.042 142.066 169.763 142.331 169.555 142.679C169.346 143.026 169.253 143.382 169.277 143.744C169.296 144.114 169.415 144.451 169.633 144.756L168.86 145.219C168.666 144.962 168.533 144.665 168.459 144.327C168.386 143.988 168.375 143.641 168.428 143.286C168.481 142.93 168.606 142.589 168.802 142.26Z" fill="#034833"/>
<path d="M160.846 152.413C161.223 151.981 161.672 151.675 162.192 151.496C162.714 151.328 163.254 151.297 163.81 151.403C164.367 151.509 164.887 151.756 165.369 152.146C165.851 152.535 166.191 152.977 166.389 153.471C166.593 153.97 166.656 154.473 166.579 154.981C166.497 155.494 166.272 155.961 165.905 156.382C165.613 156.716 165.289 156.961 164.932 157.114C164.576 157.279 164.207 157.364 163.826 157.371C163.451 157.382 163.084 157.326 162.724 157.203C162.371 157.085 162.052 156.911 161.766 156.68C161.707 156.632 161.641 156.574 161.568 156.505C161.502 156.442 161.435 156.373 161.368 156.299L164.784 152.381L165.408 152.885L162.317 156.432L162.321 155.904C162.603 156.221 162.927 156.419 163.293 156.498C163.661 156.589 164.019 156.579 164.369 156.468C164.725 156.363 165.029 156.166 165.28 155.877C165.531 155.589 165.688 155.258 165.749 154.885C165.806 154.518 165.754 154.152 165.595 153.788C165.442 153.428 165.163 153.109 164.756 152.831C164.401 152.494 164.017 152.282 163.606 152.196C163.195 152.12 162.802 152.146 162.426 152.275C162.045 152.41 161.727 152.624 161.47 152.918C161.174 153.258 161.008 153.611 160.974 153.976C160.939 154.342 160.984 154.697 161.109 155.043L160.323 155.352C160.189 155.086 160.113 154.784 160.094 154.445C160.081 154.11 160.134 153.765 160.252 153.408C160.371 153.062 160.569 152.73 160.846 152.413Z" fill="#034833"/>
<path d="M151.385 160.962C151.843 160.592 152.343 160.38 152.884 160.326C153.425 160.272 153.942 160.376 154.433 160.637L154.097 161.351C153.714 161.179 153.327 161.108 152.938 161.138C152.542 161.172 152.195 161.31 151.898 161.55C151.612 161.781 151.429 162.042 151.348 162.333C151.272 162.63 151.33 162.888 151.521 163.108C151.662 163.269 151.82 163.357 151.996 163.373C152.176 163.394 152.352 163.38 152.522 163.331C152.692 163.282 152.835 163.23 152.95 163.177L153.804 162.812C154.349 162.577 154.816 162.49 155.204 162.55C155.591 162.611 155.91 162.785 156.162 163.074C156.398 163.345 156.533 163.639 156.566 163.956C156.599 164.273 156.541 164.585 156.393 164.892C156.244 165.199 156.021 165.472 155.724 165.712C155.319 166.039 154.862 166.231 154.354 166.288C153.845 166.355 153.364 166.263 152.91 166.01L153.255 165.289C153.6 165.452 153.949 165.515 154.301 165.476C154.652 165.448 154.964 165.324 155.238 165.103C155.505 164.886 155.662 164.647 155.707 164.384C155.752 164.122 155.687 163.89 155.511 163.688C155.375 163.532 155.225 163.442 155.061 163.417C154.898 163.392 154.742 163.4 154.595 163.44C154.442 163.485 154.313 163.53 154.21 163.574L153.219 163.991C152.737 164.194 152.288 164.267 151.873 164.209C151.451 164.156 151.105 163.974 150.834 163.663C150.612 163.409 150.488 163.121 150.461 162.799C150.428 162.482 150.489 162.162 150.645 161.84C150.805 161.524 151.052 161.231 151.385 160.962Z" fill="#034833"/>
<path d="M140.194 168.082C140.709 167.796 141.237 167.673 141.778 167.713C142.32 167.754 142.809 167.945 143.247 168.288L142.792 168.934C142.445 168.698 142.078 168.562 141.689 168.524C141.294 168.489 140.93 168.565 140.595 168.751C140.274 168.93 140.049 169.155 139.919 169.429C139.793 169.709 139.804 169.974 139.954 170.223C140.064 170.407 140.204 170.521 140.374 170.567C140.548 170.619 140.723 170.636 140.898 170.617C141.074 170.598 141.224 170.571 141.346 170.538L142.249 170.325C142.826 170.188 143.3 170.183 143.67 170.31C144.04 170.436 144.324 170.664 144.52 170.992C144.705 171.3 144.786 171.614 144.764 171.932C144.741 172.251 144.63 172.549 144.43 172.826C144.231 173.103 143.964 173.335 143.63 173.52C143.175 173.773 142.693 173.884 142.184 173.852C141.671 173.83 141.214 173.656 140.813 173.328L141.278 172.676C141.588 172.897 141.92 173.019 142.273 173.041C142.622 173.074 142.951 173.005 143.259 172.834C143.559 172.667 143.755 172.458 143.845 172.207C143.935 171.956 143.911 171.715 143.773 171.486C143.667 171.308 143.536 171.193 143.379 171.14C143.223 171.087 143.068 171.068 142.917 171.083C142.758 171.101 142.624 171.123 142.515 171.148L141.469 171.389C140.959 171.506 140.505 171.5 140.107 171.371C139.703 171.246 139.394 171.007 139.181 170.652C139.008 170.364 138.936 170.058 138.966 169.736C138.989 169.417 139.104 169.112 139.313 168.821C139.526 168.536 139.82 168.29 140.194 168.082Z" fill="#034833"/>
<path d="M116.245 176.204L117.785 184.613L116.88 184.766L115.34 176.357L116.245 176.204Z" fill="#034833"/>
<path d="M105.482 177.195V183.346H104.621V182.176L104.759 182.348C104.59 182.707 104.342 182.986 104.013 183.185C103.676 183.384 103.309 183.484 102.911 183.484C102.437 183.484 102.008 183.35 101.626 183.082C101.243 182.814 100.972 182.466 100.811 182.038L101.052 182.026C100.899 182.501 100.635 182.86 100.26 183.105C99.8779 183.358 99.4571 183.484 98.9981 183.484C98.585 183.484 98.2063 183.384 97.8621 183.185C97.5102 182.986 97.2309 182.711 97.0244 182.359C96.8102 182.015 96.7031 181.625 96.7031 181.189V177.195H97.5637V180.856C97.5637 181.231 97.6326 181.548 97.7703 181.808C97.9003 182.068 98.0801 182.267 98.3096 182.405C98.5391 182.55 98.803 182.623 99.1014 182.623C99.3921 182.623 99.656 182.55 99.8932 182.405C100.13 182.267 100.318 182.065 100.455 181.797C100.593 181.537 100.662 181.223 100.662 180.856V177.195H101.523V180.856C101.523 181.231 101.592 181.548 101.729 181.808C101.859 182.068 102.039 182.267 102.269 182.405C102.498 182.55 102.762 182.623 103.06 182.623C103.359 182.623 103.626 182.55 103.864 182.405C104.093 182.267 104.277 182.065 104.414 181.797C104.552 181.537 104.621 181.223 104.621 180.856V177.195H105.482Z" fill="#034833"/>
<path d="M91.5806 176.504L90.4723 182.554L89.6238 182.41L89.8347 181.259L89.9395 181.451C89.7088 181.776 89.4133 182.01 89.0532 182.15C88.6855 182.289 88.3055 182.326 87.9133 182.259C87.4457 182.18 87.0474 181.977 86.7186 181.649C86.3897 181.322 86.1847 180.934 86.1035 180.486L86.3431 180.515C86.1068 180.956 85.7818 181.265 85.3681 181.443C84.9455 181.628 84.508 181.681 84.0554 181.604C83.6481 181.535 83.2927 181.374 82.9892 181.121C82.6781 180.866 82.4524 180.549 82.3121 180.168C82.163 179.794 82.1277 179.392 82.2063 178.963L82.9258 175.035L83.7743 175.179L83.1147 178.78C83.0472 179.148 83.0579 179.472 83.1468 179.751C83.2281 180.029 83.3695 180.254 83.571 180.428C83.7711 180.61 84.0182 180.725 84.3123 180.775C84.5989 180.824 84.8722 180.796 85.1322 180.693C85.3909 180.597 85.6122 180.429 85.7962 180.189C85.9788 179.956 86.1032 179.659 86.1694 179.298L86.8289 175.697L87.6774 175.841L87.0179 179.442C86.9503 179.811 86.961 180.135 87.0499 180.414C87.1313 180.691 87.2727 180.917 87.4741 181.091C87.6742 181.272 87.9213 181.388 88.2155 181.438C88.5096 181.488 88.7867 181.461 89.0467 181.358C89.2978 181.261 89.5153 181.092 89.6993 180.852C89.8819 180.619 90.0063 180.322 90.0725 179.961L90.7321 176.36L91.5806 176.504Z" fill="#034833"/>
<path d="M76.6421 172.869L74.4667 178.622L73.6545 178.337L75.8299 172.584L76.6421 172.869ZM74.065 179.685L73.6185 180.865L72.8063 180.581L73.2527 179.4L74.065 179.685Z" fill="#034833"/>
<path d="M63.9388 164.318C64.3066 164.522 64.6142 164.767 64.8616 165.053C65.1023 165.336 65.2773 165.639 65.3866 165.962C65.4932 166.275 65.5299 166.593 65.4968 166.915L64.5863 166.895C64.6289 166.586 64.5681 166.264 64.4041 165.928C64.2402 165.592 63.9442 165.305 63.5162 165.067C63.1886 164.885 62.8503 164.78 62.5014 164.752C62.1524 164.724 61.8216 164.785 61.5088 164.935C61.1961 165.085 60.9334 165.337 60.721 165.691L60.0186 166.862L59.9631 166.687C60.3786 166.411 60.8332 166.27 61.3269 166.264C61.8166 166.265 62.2788 166.387 62.7135 166.628C63.215 166.907 63.5955 167.276 63.8551 167.735C64.1146 168.194 64.2414 168.689 64.2354 169.219C64.2188 169.752 64.063 170.265 63.7679 170.757C63.4688 171.256 63.0856 171.642 62.6182 171.916C62.1441 172.186 61.639 172.329 61.1028 172.346C60.56 172.359 60.0344 172.225 59.5262 171.942C59.0916 171.701 58.7561 171.383 58.5197 170.989C58.2767 170.592 58.1519 170.168 58.1452 169.718L58.3895 169.579L57.6813 170.759L56.929 170.341L59.9687 165.273C60.2402 164.821 60.5925 164.478 61.0257 164.247C61.4561 164.005 61.9262 163.89 62.436 163.902C62.9431 163.904 63.444 164.043 63.9388 164.318ZM62.2307 167.344C61.883 167.151 61.5175 167.061 61.1344 167.076C60.7473 167.097 60.3836 167.205 60.0433 167.401C59.6924 167.6 59.4126 167.873 59.2041 168.221C58.9955 168.568 58.8916 168.935 58.8923 169.32C58.8824 169.708 58.9668 170.066 59.1453 170.392C59.3199 170.725 59.5811 170.989 59.9288 171.182C60.2832 171.379 60.6573 171.469 61.0511 171.451C61.4409 171.441 61.806 171.337 62.1463 171.142C62.4799 170.942 62.753 170.665 62.9654 170.311C63.174 169.963 63.2866 169.597 63.3031 169.213C63.3091 168.831 63.2248 168.474 63.0502 168.141C62.8649 167.81 62.5918 167.545 62.2307 167.344Z" fill="#034833"/>
<path d="M53.5148 160.259L49.4731 164.895L48.8036 164.354L49.4672 163.593L49.4584 163.778C49.1543 163.906 48.8339 163.942 48.4972 163.886C48.1545 163.825 47.8195 163.663 47.4922 163.398L47.1886 163.153L47.7542 162.504L48.1737 162.843C48.5189 163.122 48.8861 163.242 49.2754 163.202C49.6646 163.163 50.0252 162.953 50.3569 162.573L52.8453 159.718L53.5148 160.259Z" fill="#034833"/>
<path d="M43.2513 150.231C43.5076 150.525 43.6798 150.833 43.7678 151.155C43.8499 151.482 43.8475 151.794 43.7608 152.09C43.6741 152.386 43.4998 152.64 43.2379 152.851C42.988 153.053 42.7166 153.184 42.4238 153.243C42.125 153.308 41.8087 153.288 41.4748 153.184C41.141 153.081 40.796 152.883 40.4399 152.591L38.544 151.026L39.151 150.536L40.8844 151.966C41.2355 152.253 41.5567 152.406 41.8481 152.426C42.1345 152.44 42.3877 152.359 42.6079 152.181C42.8222 152.008 42.9333 151.78 42.9413 151.499C42.9443 151.211 42.8327 150.938 42.6065 150.678C42.3301 150.361 42.0203 150.14 41.6773 150.014C41.3284 149.893 40.9771 149.862 40.6234 149.922C40.2698 149.981 39.9471 150.129 39.6555 150.364L38.4415 151.345C38.1558 151.576 38.0117 151.864 38.0091 152.21C38.0065 152.556 38.1459 152.891 38.4274 153.214C38.6738 153.496 38.9643 153.684 39.2991 153.777C39.6279 153.875 39.9536 153.883 40.2762 153.799L40.4586 154.654C40.1809 154.731 39.8783 154.744 39.5508 154.694C39.2183 154.639 38.8988 154.528 38.5925 154.363C38.2802 154.202 38.0109 153.992 37.7847 153.733C37.4881 153.393 37.2952 153.038 37.2058 152.667C37.1115 152.292 37.1235 151.933 37.2418 151.592C37.3491 151.25 37.5605 150.951 37.8759 150.696L41.161 148.043L41.7266 148.692L40.7714 149.463L40.7866 149.289C41.0356 149.225 41.3098 149.22 41.6094 149.273C41.898 149.325 42.1875 149.43 42.4778 149.588C42.7572 149.746 43.015 149.96 43.2513 150.231Z" fill="#034833"/>
<path d="M35.0069 138.725C35.2902 139.197 35.3682 139.64 35.2408 140.051C35.1134 140.463 34.7889 140.814 34.2674 141.104L31.2081 142.804L31.7925 143.779L31.0402 144.197L30.8926 143.951C30.7588 143.728 30.579 143.591 30.3532 143.542C30.1207 143.496 29.8908 143.537 29.6635 143.663L29.2121 143.914L28.7694 143.176L30.0132 142.484L29.3167 141.323L30.069 140.905L30.7655 142.066L33.8247 140.366C34.0052 140.266 34.15 140.15 34.2589 140.02C34.3612 139.893 34.4151 139.745 34.4205 139.576C34.4221 139.4 34.3579 139.204 34.2281 138.987C34.1966 138.935 34.1559 138.874 34.1059 138.806C34.0559 138.737 34.0119 138.679 33.9737 138.63L34.6457 138.257C34.713 138.324 34.7795 138.405 34.8452 138.5C34.9176 138.591 34.9715 138.666 35.0069 138.725Z" fill="#034833"/>
<path d="M30.1641 128.663L24.3594 130.697L24.055 129.892L29.8598 127.858L30.1641 128.663ZM23.2872 131.072L22.0959 131.49L21.7915 130.685L22.9828 130.267L23.2872 131.072Z" fill="#034833"/>
<path d="M26.3955 114.085C26.5002 114.657 26.4596 115.199 26.2735 115.712C26.0799 116.226 25.771 116.662 25.3469 117.021C24.9138 117.374 24.3918 117.602 23.7809 117.706C23.1775 117.808 22.6134 117.764 22.0886 117.574C21.5638 117.384 21.1236 117.082 20.768 116.669C20.4035 116.25 20.1675 115.747 20.0599 115.16C19.9524 114.573 19.9924 114.027 20.1798 113.522C20.3659 113.009 20.6724 112.581 21.0993 112.237C21.5248 111.886 22.0431 111.658 22.654 111.554C23.2725 111.449 23.8486 111.495 24.3823 111.692C24.9084 111.889 25.35 112.198 25.707 112.619C26.0626 113.032 26.2921 113.52 26.3955 114.085ZM25.547 114.229C25.4725 113.822 25.3038 113.475 25.0409 113.186C24.7766 112.889 24.45 112.677 24.0611 112.549C23.6707 112.414 23.2569 112.383 22.8194 112.457C22.382 112.531 22.0077 112.696 21.6966 112.95C21.3841 113.197 21.1563 113.504 21.0134 113.869C20.869 114.228 20.834 114.61 20.9085 115.016C20.9829 115.423 21.1522 115.774 21.4165 116.07C21.6795 116.36 22.0023 116.572 22.3851 116.709C22.7679 116.846 23.178 116.877 23.6154 116.803C24.0529 116.729 24.4309 116.564 24.7496 116.308C25.0682 116.052 25.2998 115.745 25.4441 115.387C25.5871 115.021 25.6214 114.635 25.547 114.229Z" fill="#034833"/>
<path d="M26.4346 103.761H20.2838V102.9H21.4773L21.4314 103.095C21.0336 102.942 20.7199 102.694 20.4904 102.349C20.2609 101.998 20.1461 101.592 20.1461 101.133C20.1461 100.697 20.2456 100.307 20.4445 99.9626C20.6434 99.6107 20.9188 99.3353 21.2707 99.1364C21.615 98.9299 22.0051 98.8266 22.4412 98.8266H26.4346V99.6872H22.774C22.3991 99.6872 22.0816 99.7561 21.8215 99.8938C21.5614 100.024 21.3625 100.211 21.2248 100.456C21.0795 100.693 21.0068 100.969 21.0068 101.282C21.0068 101.596 21.0795 101.875 21.2248 102.12C21.3625 102.365 21.5652 102.556 21.833 102.694C22.0931 102.831 22.4068 102.9 22.774 102.9H26.4346V103.761Z" fill="#034833"/>
<path d="M29.5428 79.3455L22.5784 73.5993L22.9274 72.6762L32.0995 72.5833L31.7586 73.485L29.5279 73.4814L28.1764 77.0557L29.8837 78.4439L29.5428 79.3455ZM27.4697 76.492L28.602 73.4973L23.354 73.4942L23.4514 73.2366L27.4697 76.492Z" fill="#034833"/>
<path d="M39.2276 65.3573C39.0112 65.7182 38.7537 66.0212 38.455 66.2663C38.1604 66.5049 37.8458 66.68 37.5114 66.7916C37.1877 66.9003 36.86 66.9413 36.5284 66.9144L36.5645 66.0292C36.8816 66.0654 37.2144 66.0011 37.5629 65.8361C37.9115 65.6712 38.2117 65.3788 38.4635 64.9589C38.6563 64.6375 38.7699 64.3069 38.8042 63.9673C38.8384 63.6277 38.7811 63.3072 38.632 63.0057C38.483 62.7041 38.2279 62.453 37.8668 62.2524L36.6732 61.589L36.8544 61.5322C37.132 61.9315 37.2696 62.371 37.2672 62.8507C37.2581 63.3268 37.1256 63.778 36.8699 64.2044C36.5747 64.6965 36.1888 65.0724 35.712 65.3323C35.2351 65.5921 34.7239 65.7235 34.1783 65.7264C33.6299 65.7191 33.105 65.5761 32.6035 65.2973C32.0953 65.0149 31.7041 64.6488 31.43 64.199C31.1598 63.7427 31.0204 63.2541 31.0119 62.7333C31.0072 62.2058 31.1545 61.6928 31.4535 61.1942C31.7093 60.7678 32.0417 60.4365 32.4509 60.2002C32.864 59.9574 33.302 59.8291 33.765 59.8153L33.9049 60.0504L32.7012 59.3815L33.1439 58.6434L38.3095 61.5143C38.7709 61.7707 39.1172 62.1075 39.3484 62.5247C39.5903 62.939 39.7008 63.3941 39.6798 63.8898C39.6695 64.3827 39.5188 64.8718 39.2276 65.3573ZM36.1412 63.747C36.3458 63.4058 36.4438 63.0492 36.4352 62.677C36.42 62.3011 36.3144 61.9494 36.1185 61.6219C35.9199 61.2841 35.6434 61.0167 35.289 60.8197C34.9346 60.6228 34.5592 60.5278 34.1626 60.5349C33.7634 60.5316 33.3942 60.6195 33.055 60.7984C32.7092 60.9736 32.434 61.2318 32.2294 61.5729C32.0208 61.9207 31.9222 62.2857 31.9336 62.6682C31.9382 63.0469 32.0385 63.4 32.2343 63.7276C32.4341 64.0486 32.7146 64.3094 33.0757 64.5101C33.4301 64.707 33.8049 64.8104 34.2003 64.8202C34.5929 64.8197 34.9621 64.7318 35.3079 64.5566C35.6509 64.3711 35.9287 64.1013 36.1412 63.747Z" fill="#034833"/>
<path d="M45.1564 53.9422C44.7794 54.3747 44.3304 54.6803 43.8096 54.859C43.2878 55.0272 42.7484 55.0584 42.1916 54.9525C41.6348 54.8467 41.1154 54.5991 40.6333 54.2098C40.1513 53.8204 39.8112 53.3787 39.6131 52.8846C39.4091 52.3856 39.3458 51.8824 39.4231 51.3749C39.5054 50.8616 39.7301 50.3945 40.097 49.9735C40.3886 49.639 40.7129 49.3949 41.0701 49.2412C41.4263 49.0768 41.7949 48.9913 42.176 48.9847C42.5511 48.9732 42.9182 49.029 43.2775 49.1521C43.6307 49.2704 43.9502 49.4449 44.2359 49.6756C44.2954 49.7237 44.3613 49.7818 44.4336 49.8501C44.5 49.9135 44.5669 49.9823 44.6342 50.0563L41.2184 53.9748L40.5935 53.4701L43.6851 49.9235L43.6814 50.4512C43.3993 50.135 43.0751 49.9369 42.7086 49.8571C42.3411 49.7667 41.9825 49.7767 41.6326 49.8872C41.2768 49.9929 40.9733 50.1899 40.7219 50.4782C40.4706 50.7666 40.3142 51.0972 40.2528 51.4702C40.1964 51.8374 40.2477 52.2031 40.4068 52.5675C40.5599 52.927 40.8394 53.2461 41.2455 53.525C41.6012 53.8614 41.9847 54.073 42.3961 54.1595C42.8065 54.2355 43.1996 54.2092 43.5756 54.0804C43.9565 53.9459 44.2752 53.7316 44.5315 53.4375C44.8281 53.0972 44.9936 52.7445 45.0281 52.3792C45.0625 52.0139 45.0176 51.6583 44.8933 51.3122L45.6794 51.0038C45.8132 51.2691 45.8894 51.5714 45.908 51.9107C45.9207 52.2452 45.8679 52.5908 45.7498 52.9474C45.6307 53.2934 45.4329 53.625 45.1564 53.9422Z" fill="#034833"/>
<path d="M52.6942 46.7675L48.6526 42.1311L49.3221 41.5903L50.1063 42.4899L49.9244 42.5779C49.782 42.1818 49.7693 41.7892 49.8863 41.3999C50.0093 41.0057 50.2493 40.6645 50.6063 40.376C50.9456 40.102 51.3144 39.9318 51.7129 39.8655C52.1174 39.7943 52.5126 39.8288 52.8986 39.9691C53.2855 40.0988 53.6222 40.328 53.9087 40.6567L56.5328 43.667L55.8632 44.2078L53.4579 41.4484C53.2116 41.1658 52.9494 40.9698 52.6713 40.8602C52.3993 40.7459 52.1227 40.7137 51.8418 40.7637C51.5618 40.8032 51.2998 40.9214 51.0558 41.1185C50.8118 41.3156 50.6424 41.5459 50.5474 41.8093C50.4475 42.0669 50.4319 42.3399 50.5007 42.6282C50.5645 42.9108 50.7171 43.1905 50.9583 43.4673L53.3637 46.2267L52.6942 46.7675Z" fill="#034833"/>
<path d="M66.3996 37.9407C65.8714 38.2343 65.3338 38.3712 64.787 38.3515C64.2402 38.3317 63.7292 38.1783 63.254 37.8914C62.7748 37.5978 62.3778 37.1887 62.063 36.6638C61.7482 36.1389 61.5805 35.6067 61.56 35.067C61.5394 34.5273 61.659 34.0279 61.9185 33.5688C62.1741 33.103 62.5661 32.7234 63.0943 32.4298C63.4287 32.244 63.7784 32.1284 64.1434 32.0829C64.5085 32.0375 64.8657 32.0533 65.215 32.1303C65.5604 32.2008 65.8686 32.3357 66.1397 32.5349L65.6642 33.2584C65.3613 33.0506 65.0196 32.9344 64.6392 32.9096C64.2588 32.8848 63.8914 32.9709 63.537 33.1679C63.1826 33.3648 62.9148 33.6318 62.7335 33.9687C62.5549 34.2954 62.4745 34.6593 62.4923 35.0606C62.5128 35.4516 62.6392 35.8406 62.8713 36.2277C63.0995 36.6082 63.3864 36.908 63.7318 37.1272C64.08 37.3361 64.4476 37.4511 64.8347 37.4721C65.2285 37.4894 65.6026 37.3996 65.957 37.2027C66.3114 37.0057 66.5692 36.7443 66.7304 36.4185C66.8983 36.089 66.964 35.7376 66.9273 35.3644L67.8278 35.3494C67.8676 35.6685 67.8348 35.9929 67.7294 36.3226C67.624 36.6523 67.4596 36.958 67.2362 37.2396C67.0128 37.5212 66.734 37.7549 66.3996 37.9407Z" fill="#034833"/>
<path d="M76.8355 36.0854C76.72 36.1258 76.5968 36.1569 76.466 36.1784C76.3451 36.2045 76.2187 36.2164 76.087 36.2139L75.8029 35.4626C75.8778 35.4444 75.9721 35.4236 76.0858 35.3999C76.2094 35.3809 76.329 35.3512 76.4445 35.3107C76.7983 35.1868 77.0406 35.0168 77.1715 34.8007C77.3051 34.5918 77.3837 34.2483 77.4073 33.77L77.4508 32.7823L77.697 33.4983L72.9334 28.2629L73.8107 27.9556L77.7284 32.2839L77.501 32.3636L77.6011 26.6276L78.4999 26.3126L78.298 33.7253C78.288 34.0449 78.2401 34.3615 78.1543 34.6752C78.0757 34.9864 77.9313 35.2639 77.7209 35.5077C77.5133 35.7588 77.2182 35.9513 76.8355 36.0854Z" fill="#034833"/>
<g clip-path="url(#clip0_3823_13)">
<path d="M103.499 87.8281C100.12 87.8319 96.8812 89.1757 94.492 91.5648C92.1029 93.9538 90.7589 97.1929 90.7549 100.572C90.7549 111.714 102.74 117.152 103.25 117.376C103.328 117.411 103.413 117.429 103.499 117.429C103.585 117.429 103.67 117.411 103.748 117.376C104.258 117.15 116.243 111.712 116.243 100.572C116.239 97.1929 114.895 93.9538 112.506 91.5648C110.117 89.1757 106.878 87.8319 103.499 87.8281ZM103.499 116.135C101.796 115.3 91.9854 110.071 91.9854 100.572C91.9854 97.5179 93.1984 94.5894 95.3576 92.4302C97.5169 90.2709 100.445 89.0579 103.499 89.0579C106.553 89.0579 109.481 90.2709 111.64 92.4302C113.8 94.5894 115.013 97.5179 115.013 100.572C115.013 110.058 105.201 115.298 103.499 116.135Z" fill="#034833"/>
<path d="M103.499 91.1172C101.629 91.1172 99.8008 91.6717 98.2459 92.7107C96.6911 93.7496 95.4792 95.2263 94.7636 96.954C94.048 98.6817 93.8608 100.583 94.2257 102.417C94.5906 104.251 95.4911 105.936 96.8135 107.258C98.1358 108.58 99.8206 109.481 101.655 109.845C103.489 110.21 105.39 110.023 107.118 109.307C108.845 108.591 110.322 107.379 111.361 105.824C112.4 104.27 112.954 102.441 112.954 100.571C112.951 98.0648 111.954 95.6618 110.181 93.8894C108.409 92.117 106.005 91.1201 103.499 91.1172ZM98.7088 107.251V106.497C98.7094 105.634 99.0521 104.807 99.6618 104.197C100.272 103.587 101.098 103.244 101.961 103.243H105.037C105.899 103.244 106.726 103.587 107.335 104.197C107.945 104.806 108.288 105.633 108.289 106.495V107.251C106.894 108.256 105.218 108.796 103.499 108.796C101.78 108.796 100.104 108.256 98.7088 107.251ZM109.504 106.184C109.424 105.053 108.919 103.995 108.091 103.221C107.263 102.448 106.172 102.016 105.039 102.014H101.963C100.829 102.016 99.7388 102.448 98.9104 103.221C98.0821 103.995 97.5774 105.053 97.4977 106.184C96.402 105.013 95.6724 103.548 95.3987 101.968C95.1249 100.388 95.319 98.7622 95.9571 97.2911C96.5951 95.82 97.6493 94.5675 98.9898 93.6877C100.33 92.8079 101.899 92.3392 103.502 92.3392C105.106 92.3392 106.674 92.8079 108.015 93.6877C109.356 94.5675 110.41 95.82 111.048 97.2911C111.686 98.7622 111.88 100.388 111.606 101.968C111.332 103.548 110.603 105.013 109.507 106.184H109.504Z" fill="#034833"/>
<path d="M81.3787 91.7145C81.4911 91.7611 81.6148 91.7733 81.7341 91.7496C81.8535 91.7259 81.9631 91.6673 82.0491 91.5812L85.6179 88.0129L90.5155 92.9105C90.6309 93.0259 90.7875 93.0908 90.9507 93.0908C90.9723 93.0909 90.9939 93.0897 91.0154 93.0873C91.1066 93.0778 91.1945 93.0479 91.2726 92.9999C91.3507 92.9519 91.4171 92.887 91.4668 92.8099C92.0828 91.8593 92.8084 90.9844 93.6286 90.2031C93.688 90.1465 93.7355 90.0786 93.7683 90.0033C93.801 89.9281 93.8184 89.847 93.8194 89.765C93.8204 89.6829 93.8049 89.6015 93.774 89.5255C93.743 89.4495 93.6972 89.3804 93.6391 89.3224L88.9739 84.6568L92.5422 81.0881C92.628 81.0022 92.6863 80.8927 92.71 80.7737C92.7336 80.6546 92.7214 80.5312 92.675 80.419C92.6287 80.3068 92.5501 80.2108 92.4492 80.1432C92.3484 80.0756 92.2298 80.0394 92.1084 80.0391H81.6143C81.4513 80.0391 81.2949 80.1037 81.1796 80.2189C81.0642 80.334 80.9993 80.4903 80.999 80.6532V91.1463C80.999 91.268 81.0351 91.3869 81.1027 91.488C81.1703 91.5891 81.2663 91.6679 81.3787 91.7145ZM82.2295 81.2695H90.622L87.6689 84.2227C87.6117 84.2798 87.5663 84.3476 87.5354 84.4222C87.5044 84.4969 87.4885 84.5769 87.4885 84.6577C87.4885 84.7385 87.5044 84.8185 87.5354 84.8932C87.5663 84.9678 87.6117 85.0357 87.6689 85.0928L92.3323 89.7559C91.7996 90.3059 91.3079 90.8941 90.8611 91.5158L86.0527 86.7079C85.9956 86.6507 85.9278 86.6053 85.8532 86.5744C85.7785 86.5434 85.6985 86.5275 85.6177 86.5275C85.5369 86.5275 85.4568 86.5434 85.3822 86.5744C85.3075 86.6053 85.2397 86.6507 85.1826 86.7079L82.2295 89.661V81.2695Z" fill="#034833"/>
<path d="M92.7444 110.931C92.6916 110.86 92.6242 110.801 92.5468 110.759C92.4693 110.717 92.3837 110.692 92.2957 110.685C92.2078 110.679 92.1194 110.692 92.0367 110.722C91.9541 110.753 91.879 110.801 91.8166 110.864L85.6179 117.063L82.0491 113.494C81.9631 113.408 81.8535 113.35 81.7342 113.326C81.6149 113.302 81.4912 113.314 81.3789 113.361C81.2665 113.407 81.1704 113.486 81.1028 113.587C81.0352 113.688 80.9991 113.807 80.999 113.929V124.422C80.9989 124.503 81.0147 124.583 81.0456 124.658C81.0764 124.733 81.1217 124.801 81.1788 124.858C81.236 124.915 81.3039 124.96 81.3786 124.991C81.4533 125.022 81.5334 125.038 81.6143 125.038H92.1084C92.2301 125.038 92.3491 125.002 92.4503 124.935C92.5516 124.867 92.6305 124.771 92.677 124.659C92.7236 124.546 92.7358 124.423 92.7119 124.303C92.6881 124.184 92.6294 124.074 92.5433 123.988L88.9749 120.42L95.0077 114.386C95.0651 114.329 95.1105 114.26 95.1414 114.185C95.1723 114.11 95.1881 114.03 95.1878 113.949C95.1875 113.868 95.1712 113.787 95.1397 113.713C95.1083 113.638 95.0623 113.57 95.0046 113.513C94.1876 112.71 93.4321 111.847 92.7444 110.931ZM87.6689 119.984C87.6117 120.041 87.5663 120.108 87.5354 120.183C87.5045 120.258 87.4885 120.338 87.4885 120.418C87.4885 120.499 87.5045 120.579 87.5354 120.654C87.5663 120.729 87.6117 120.796 87.6689 120.853L90.622 123.806H82.2295V115.415L85.1826 118.368C85.2397 118.425 85.3075 118.47 85.3822 118.501C85.4568 118.532 85.5369 118.548 85.6177 118.548C85.6985 118.548 85.7785 118.532 85.8532 118.501C85.9278 118.47 85.9956 118.425 86.0527 118.368L92.1924 112.228C92.6607 112.815 93.1666 113.39 93.7041 113.947L87.6689 119.984Z" fill="#034833"/>
<path d="M125.619 113.361C125.506 113.314 125.383 113.302 125.263 113.326C125.144 113.349 125.034 113.408 124.948 113.494L121.38 117.063L115.18 110.864C115.118 110.802 115.043 110.753 114.96 110.723C114.877 110.692 114.789 110.679 114.701 110.685C114.613 110.691 114.528 110.717 114.45 110.759C114.373 110.802 114.306 110.86 114.253 110.931C113.565 111.847 112.81 112.709 111.993 113.512C111.935 113.569 111.889 113.637 111.858 113.712C111.826 113.786 111.81 113.867 111.81 113.948C111.809 114.029 111.825 114.109 111.856 114.184C111.887 114.259 111.932 114.327 111.99 114.385L118.023 120.419L114.455 123.987C114.369 124.073 114.31 124.183 114.286 124.302C114.262 124.421 114.274 124.545 114.32 124.658C114.367 124.771 114.445 124.867 114.547 124.935C114.648 125.002 114.767 125.038 114.889 125.038H125.383C125.546 125.038 125.703 124.973 125.818 124.858C125.934 124.743 125.998 124.586 125.998 124.423V113.929C125.998 113.807 125.962 113.688 125.895 113.587C125.827 113.486 125.731 113.407 125.619 113.361ZM124.768 123.808H116.375L119.328 120.855C119.386 120.798 119.431 120.73 119.462 120.655C119.493 120.581 119.509 120.501 119.509 120.42C119.509 120.339 119.493 120.259 119.462 120.184C119.431 120.11 119.386 120.042 119.328 119.985L113.293 113.947C113.831 113.39 114.337 112.815 114.804 112.228L120.944 118.367C121.001 118.425 121.069 118.47 121.143 118.501C121.218 118.532 121.298 118.548 121.379 118.548C121.46 118.548 121.54 118.532 121.614 118.501C121.689 118.47 121.757 118.425 121.814 118.367L124.767 115.414L124.768 123.808Z" fill="#034833"/>
<path d="M125.384 80.0391H114.89C114.768 80.039 114.649 80.075 114.548 80.1426C114.447 80.2101 114.368 80.3062 114.321 80.4187C114.275 80.5311 114.262 80.6549 114.286 80.7742C114.31 80.8936 114.369 81.0032 114.455 81.0892L118.023 84.6579L113.359 89.3224C113.301 89.3804 113.255 89.4495 113.224 89.5255C113.193 89.6015 113.178 89.6829 113.179 89.765C113.18 89.847 113.197 89.9281 113.23 90.0033C113.263 90.0786 113.31 90.1465 113.37 90.2031C114.19 90.9845 114.915 91.8594 115.531 92.8099C115.581 92.887 115.647 92.9519 115.726 92.9999C115.804 93.0479 115.892 93.0778 115.983 93.0873C116.004 93.0897 116.026 93.0909 116.047 93.0908C116.211 93.0908 116.367 93.0259 116.483 92.9105L121.38 88.0129L124.949 91.5812C125.035 91.6672 125.145 91.7257 125.264 91.7494C125.383 91.7732 125.507 91.761 125.619 91.7144C125.732 91.6679 125.828 91.5891 125.895 91.488C125.963 91.3869 125.999 91.268 125.999 91.1463V80.6532C125.999 80.4903 125.934 80.334 125.819 80.2189C125.703 80.1037 125.547 80.0391 125.384 80.0391ZM124.769 89.661L121.816 86.7079C121.758 86.6507 121.691 86.6053 121.616 86.5744C121.541 86.5434 121.461 86.5275 121.38 86.5275C121.3 86.5275 121.22 86.5434 121.145 86.5744C121.07 86.6053 121.003 86.6507 120.945 86.7079L116.137 91.5158C115.69 90.8941 115.199 90.3059 114.666 89.7559L119.329 85.0921C119.386 85.035 119.432 84.9671 119.463 84.8925C119.494 84.8178 119.51 84.7378 119.51 84.657C119.51 84.5762 119.494 84.4962 119.463 84.4215C119.432 84.3469 119.386 84.2791 119.329 84.222L116.376 81.2688H124.769V89.661Z" fill="#034833"/>
<path d="M103.499 94.103C102.809 94.0645 102.122 94.2341 101.529 94.5899C100.936 94.9456 100.464 95.4711 100.173 96.0984C99.8815 96.7257 99.7853 97.426 99.8965 98.1085C100.008 98.7911 100.321 99.4246 100.796 99.927C101.272 100.429 101.887 100.778 102.562 100.927C103.237 101.076 103.942 101.019 104.584 100.763C105.227 100.507 105.778 100.065 106.166 99.4924C106.554 98.9201 106.762 98.2445 106.762 97.5529C106.785 96.6632 106.455 95.8006 105.843 95.154C105.231 94.5074 104.389 94.1295 103.499 94.103ZM103.499 99.772C103.052 99.8114 102.603 99.7147 102.212 99.4947C101.82 99.2746 101.505 98.9415 101.306 98.5389C101.107 98.1363 101.035 97.6831 101.098 97.2386C101.161 96.7941 101.357 96.3791 101.661 96.048C101.964 95.7169 102.36 95.4852 102.797 95.3831C103.235 95.2811 103.692 95.3136 104.111 95.4763C104.529 95.639 104.889 95.9243 105.142 96.2948C105.396 96.6654 105.531 97.1039 105.531 97.5529C105.554 98.1161 105.353 98.6655 104.973 99.0812C104.592 99.4968 104.062 99.7449 103.499 99.7713V99.772Z" fill="#034833"/>
</g>
<defs>
<clipPath id="clip0_3823_13">
<rect width="45" height="45" fill="white" transform="translate(80.999 80.0391)"/>
</clipPath>
</defs>
</svg>
