<svg width="52" height="10" viewBox="0 0 52 10" fill="none" xmlns="http://www.w3.org/2000/svg">
<g clip-path="url(#clip0_3795_207)">
<path d="M4.78951 2.14437C5.58938 2.36766 6.41161 2.50135 7.24102 2.54299L13.9245 3.26714C15.4366 3.43986 16.9277 3.76256 18.3758 4.23048C19.165 4.49614 19.9243 4.84349 20.6413 5.2669C21.4175 5.78994 22.2251 6.26475 23.0596 6.68864C23.5625 6.92402 24.1122 7.04215 24.6674 7.03411C25.2786 6.99856 25.8565 6.7438 26.2951 6.3166C27.1388 5.44628 27.3713 4.38993 27.9228 3.71228C28.1509 3.37951 28.494 3.14288 28.8861 3.04791C29.3064 2.95474 29.7447 2.98472 30.1484 3.13427C31.0548 3.46398 31.8151 4.10423 32.2943 4.94135C32.8723 5.79839 33.3241 6.775 33.9818 7.69183C34.6219 8.67698 35.5705 9.42226 36.6791 9.81116C37.261 9.97733 37.8777 9.97733 38.4596 9.81116C39.0109 9.64765 39.5192 9.36403 39.9478 8.9807C40.7142 8.27735 41.3115 7.40973 41.6951 6.44282C42.0804 5.55257 42.3595 4.68889 42.7448 3.93151C43.1867 2.89622 43.989 2.05634 45.003 1.56765C46.0171 1.07897 47.1739 0.974642 48.259 1.27404C48.8354 1.41933 49.3741 1.6859 49.8393 2.05594C50.3044 2.42599 50.6852 2.89102 50.9564 3.41996C51.39 4.23627 51.5965 5.15404 51.5543 6.07742C51.5377 6.66905 51.4115 7.25247 51.1822 7.79813C51.0294 8.18346 50.9231 8.37613 50.9564 8.40271C50.9896 8.42928 51.149 8.26318 51.3749 7.89778C51.701 7.3528 51.9029 6.74258 51.9662 6.11063C52.0934 5.09968 51.9274 4.07346 51.4879 3.1542C51.2001 2.52884 50.7812 1.97266 50.2596 1.52332C49.7381 1.07399 49.126 0.742013 48.465 0.549886C47.6576 0.314234 46.8078 0.262331 45.9777 0.397987C45.1477 0.533642 44.3586 0.85342 43.6682 1.33384C42.9171 1.89515 42.3149 2.63192 41.9143 3.47975C41.4825 4.31021 41.1769 5.18716 40.7982 6.01762C40.464 6.84506 39.946 7.58567 39.2834 8.18347C38.9811 8.47409 38.6083 8.68086 38.2017 8.78339C37.7951 8.88592 37.3687 8.88064 36.9648 8.7681C36.0933 8.44143 35.3501 7.84273 34.8455 7.06068C34.2675 6.2568 33.8157 5.28018 33.1845 4.33678C32.8635 3.84764 32.4818 3.40117 32.0485 3.00804C31.5919 2.61118 31.0613 2.30862 30.4872 2.11779C29.8948 1.91517 29.2578 1.88068 28.6469 2.01814C28.0271 2.17131 27.4813 2.53834 27.1056 3.05455C26.4014 3.99795 26.1622 5.04765 25.5908 5.5725C25.3315 5.83263 24.9872 5.99065 24.6209 6.01762C24.2173 6.02071 23.8179 5.9345 23.4516 5.76517C22.6493 5.36762 21.8707 4.92396 21.1196 4.43644C20.342 3.99071 19.5177 3.632 18.6615 3.36681C17.1463 2.91365 15.5874 2.62192 14.0109 2.49649C11.1541 2.25731 8.86208 2.18423 7.2676 2.1045C6.44264 2.02614 5.61152 2.03952 4.78951 2.14437Z" fill="#034833"/>
<path d="M6.5238 6.2697C6.57695 6.13018 5.85945 5.7382 4.77653 5.08712C4.23175 4.76158 3.5873 4.36296 2.89636 3.89126C2.55089 3.65873 2.23199 3.39963 1.83337 3.13388C1.66268 3.0178 1.50459 2.88421 1.36167 2.73527C1.24212 2.61795 1.14726 2.47789 1.08265 2.32336C1.04943 2.19713 1.08265 2.20377 1.08265 2.15726C1.17899 2.06916 1.29914 2.01139 1.42811 1.99117L2.71699 1.64571C3.5408 1.41982 4.27825 1.20058 4.89611 0.981341C6.13183 0.582721 6.88921 0.263819 6.8427 0.124302C6.7962 -0.0152149 5.99897 0.0379361 4.71674 0.250534C4.05237 0.356832 3.32156 0.502993 2.48446 0.675728L1.15572 0.968051C0.816039 1.02987 0.504512 1.19726 0.265472 1.4464C0.117425 1.61431 0.0226135 1.82242 -0.00692081 2.04432C-0.0341129 2.24825 -0.0113082 2.45574 0.0595198 2.6489C0.170868 2.94985 0.347895 3.2222 0.577725 3.44614C0.76497 3.63879 0.974636 3.80831 1.20223 3.95105C1.58756 4.23009 1.97953 4.47591 2.35157 4.70179C3.0155 5.09883 3.70842 5.44528 4.42442 5.7382C5.66014 6.25641 6.47065 6.40257 6.5238 6.2697Z" fill="#034833"/>
</g>
<defs>
<clipPath id="clip0_3795_207">
<rect width="52" height="9.86585" fill="white" transform="matrix(-1 0 0 1 52 0.0664062)"/>
</clipPath>
</defs>
</svg>
