<svg width="65" height="53" viewBox="0 0 65 53" fill="none" xmlns="http://www.w3.org/2000/svg">
<path d="M61.0645 8.31641C62.1079 8.3152 63.1082 7.90017 63.846 7.16238C64.5838 6.42458 64.9988 5.42426 65 4.38086V1.58789C64.9999 1.35224 64.9062 1.12628 64.7396 0.959653C64.5729 0.793024 64.347 0.699353 64.1113 0.699219H0.888672C0.653286 0.699353 0.427558 0.792814 0.260972 0.959114C0.0943865 1.12541 0.000537679 1.35098 0 1.58637L0 4.37934C0.00120959 5.42274 0.416235 6.42306 1.15403 7.16085C1.89183 7.89865 2.89215 8.31367 3.93555 8.31488H6.85547V16.9548H0.904414C0.668724 16.9548 0.442686 17.0484 0.276028 17.2151C0.10937 17.3818 0.0157422 17.6078 0.0157422 17.8435V51.415C0.0158767 51.6506 0.109548 51.8766 0.276177 52.0432C0.442806 52.2098 0.668765 52.3035 0.904414 52.3036H64.1113C64.347 52.3035 64.5729 52.2098 64.7396 52.0432C64.9062 51.8766 64.9999 51.6506 65 51.415V17.8455C65 17.6098 64.9064 17.3838 64.7397 17.2171C64.5731 17.0505 64.347 16.9568 64.1113 16.9568H58.1445V8.31641H61.0645ZM1.77734 4.38086V2.47504H63.2227V4.38086C63.222 4.95304 62.9944 5.5016 62.5898 5.9062C62.1852 6.31079 61.6366 6.53839 61.0645 6.53906H3.93555C3.36336 6.53839 2.81481 6.31079 2.41021 5.9062C2.00561 5.5016 1.77802 4.95304 1.77734 4.38086ZM14.4407 16.9548V8.31641H50.5588V16.9548H14.4407ZM8.63281 8.31641H12.6633V16.9548H8.63281V8.31641ZM1.79309 18.7322H36.7011V50.5263H1.79309V18.7322ZM63.2227 50.5283H38.4785V18.7322H63.2227V50.5283ZM56.3672 16.9548H52.3362V8.31641H56.3672V16.9548Z" fill="#034833"/>
<path d="M31.3529 25.7916C30.6143 25.0546 29.6135 24.6406 28.5701 24.6406C27.5267 24.6406 26.5259 25.0546 25.7873 25.7916L22.0945 29.4839L15.853 28.0392C15.1183 27.8672 14.3518 27.8861 13.6264 28.0939C12.9011 28.3017 12.2409 28.6916 11.7087 29.2264L10.3198 30.6158C10.2175 30.7181 10.1418 30.8439 10.0991 30.9822C10.0564 31.1204 10.0482 31.267 10.0751 31.4092C10.1019 31.5514 10.1631 31.6849 10.2533 31.798C10.3435 31.9112 10.4599 32.0006 10.5925 32.0585L16.8087 34.7723L14.0314 37.549L8.59785 38.0522C8.39149 38.0704 8.198 38.1602 8.05093 38.3061L5.35953 40.9975C5.25014 41.1071 5.17126 41.2433 5.13069 41.3927C5.09012 41.5421 5.08925 41.6995 5.12819 41.8494C5.16712 41.9992 5.24451 42.1363 5.35268 42.2471C5.46086 42.3578 5.59607 42.4384 5.74496 42.4809L12.3348 44.3588C13.5309 44.6985 14.796 44.713 15.9995 44.4005C17.2031 44.0881 18.3014 43.4601 19.1812 42.5814L33.0328 28.7288C33.1993 28.5621 33.2929 28.336 33.2929 28.1004C33.2929 27.8647 33.1993 27.6387 33.0328 27.472L31.3529 25.7916ZM17.9259 41.323C17.27 41.9785 16.4511 42.4471 15.5537 42.6806C14.6564 42.914 13.7129 42.9038 12.8208 42.651L7.6848 41.189L9.08128 39.7925L14.5149 39.2893C14.7214 39.2703 14.9147 39.1795 15.0613 39.0328L18.9867 35.1074C19.089 35.0051 19.1648 34.8793 19.2074 34.7411C19.2501 34.6028 19.2583 34.4562 19.2314 34.314C19.2046 34.1719 19.1434 34.0384 19.0532 33.9252C18.963 33.8121 18.8466 33.7227 18.714 33.6647L12.4978 30.9505L12.965 30.4833C13.2843 30.1618 13.6808 29.9277 14.1164 29.8032C14.5521 29.6787 15.0124 29.6681 15.4533 29.7723L22.1737 31.3268C22.3206 31.3611 22.4739 31.3573 22.619 31.3157C22.764 31.2741 22.896 31.1961 23.0025 31.0891L27.0436 27.0479C27.4488 26.644 27.9977 26.4171 28.5699 26.4171C29.142 26.4171 29.6909 26.644 30.0961 27.0479L31.1478 28.1001L17.9259 41.323Z" fill="#034833"/>
<path d="M40.7637 21.9082V25.5645C40.7637 25.8001 40.8573 26.0262 41.024 26.1928C41.1906 26.3595 41.4167 26.4531 41.6523 26.4531H60.0489C60.2846 26.4531 60.5106 26.3595 60.6773 26.1928C60.8439 26.0262 60.9375 25.8001 60.9375 25.5645V21.9082C60.9375 21.6725 60.8439 21.4465 60.6773 21.2798C60.5106 21.1132 60.2846 21.0195 60.0489 21.0195H41.6523C41.4167 21.0195 41.1906 21.1132 41.024 21.2798C40.8573 21.4465 40.7637 21.6725 40.7637 21.9082ZM42.541 22.7969H59.1602V24.6758H42.541V22.7969Z" fill="#034833"/>
<path d="M60.0489 28.2812H41.6523C41.4167 28.2812 41.1906 28.3749 41.024 28.5415C40.8573 28.7082 40.7637 28.9342 40.7637 29.1699V32.8262C40.7637 33.0619 40.8573 33.2879 41.024 33.4546C41.1906 33.6212 41.4167 33.7148 41.6523 33.7148H60.0489C60.2846 33.7148 60.5106 33.6212 60.6773 33.4546C60.8439 33.2879 60.9375 33.0619 60.9375 32.8262V29.1699C60.9375 28.9342 60.8439 28.7082 60.6773 28.5415C60.5106 28.3749 60.2846 28.2812 60.0489 28.2812ZM59.1602 31.9375H42.541V30.0586H59.1602V31.9375Z" fill="#034833"/>
<path d="M60.0489 35.5469H41.6523C41.4167 35.547 41.1907 35.6407 41.0241 35.8073C40.8575 35.9739 40.7638 36.1999 40.7637 36.4355V40.0918C40.7637 40.3275 40.8573 40.5535 41.024 40.7202C41.1906 40.8868 41.4167 40.9805 41.6523 40.9805H60.0489C60.2846 40.9805 60.5106 40.8868 60.6773 40.7202C60.8439 40.5535 60.9375 40.3275 60.9375 40.0918V36.4355C60.9374 36.1999 60.8437 35.9739 60.6771 35.8073C60.5105 35.6407 60.2845 35.547 60.0489 35.5469ZM59.1602 39.2031H42.541V37.3242H59.1602V39.2031Z" fill="#034833"/>
<path d="M60.0489 42.8086H41.6523C41.4167 42.8086 41.1906 42.9022 41.024 43.0689C40.8573 43.2355 40.7637 43.4616 40.7637 43.6973V47.3535C40.7638 47.5892 40.8575 47.8151 41.0241 47.9818C41.1907 48.1484 41.4167 48.2421 41.6523 48.2422H60.0489C60.2845 48.2421 60.5105 48.1484 60.6771 47.9818C60.8437 47.8151 60.9374 47.5892 60.9375 47.3535V43.6973C60.9375 43.4616 60.8439 43.2355 60.6773 43.0689C60.5106 42.9022 60.2846 42.8086 60.0489 42.8086ZM59.1602 46.4648H42.541V44.5859H59.1602V46.4648Z" fill="#034833"/>
</svg>
